#!OML:ASF I:\golf\golf\golf 2\Subject 1\2002-09-07\Subject1.ASF
:FULLY-SPECIFIED
:DEGREES
496
root -5.7726 18.262 -2.15346 -164.934 41.8946 -172.825
lowerback -4.96193 7.55869 1.19981
upperback -2.55737 10.3 3.93586
thorax -0.416955 5.29612 3.81059
lowerneck -19.4957 -0.0226299 4.0508
upperneck 13.1339 -1.27501 1.03691
head 7.20379 -0.277093 -0.458683
rclavicle -4.67392e-014 2.38542e-015
rhumerus -22.8359 45.6464 -112.452
rradius 40.0179
rwrist -52.1277
rhand -26.2834 -3.4235
rfingers 7.12502
rthumb 0.272075 -33.4031
lclavicle -4.67392e-014 2.38542e-015
lhumerus -35.2413 -47.9363 116.746
lradius 52.2137
lwrist 60.1569
lhand -19.4049 52.1428
lfingers 7.12502
lthumb -173.086 -97.9901
rfemur -1.24895 -2.24018 12.6061
rtibia 28.4862
rfoot 14.8197 -16.8253
rtoes 3.8578
lfemur -20.1033 -8.97662 -12.4872
ltibia 20.5432
lfoot -8.34352 -27.2294
ltoes -6.77531
497
root -5.77906 18.2696 -2.1404 -165.016 42.5342 -172.874
lowerback -4.98343 7.59724 1.1164
upperback -2.43152 10.3344 3.87461
thorax -0.2795 5.30601 3.80877
lowerneck -19.4027 -0.0840093 3.923
upperneck 12.9585 -1.34239 1.20894
head 7.13198 -0.302725 -0.388655
rclavicle -2.31584e-014 -6.59965e-014
rhumerus -23.4429 45.918 -112.669
rradius 40.0798
rwrist -53.1784
rhand -26.7206 -3.26044
rfingers 7.12502
rthumb -0.150275 -33.2401
lclavicle -2.31584e-014 -6.59965e-014
lhumerus -35.7658 -48.4588 117.442
lradius 51.9301
lwrist 60.1676
lhand -18.5053 52.4124
lfingers 7.12502
lthumb -172.217 -97.7508
rfemur -1.36865 -2.24471 12.3847
rtibia 28.5355
rfoot 14.6201 -16.2793
rtoes 3.14017
lfemur -19.7826 -8.76352 -12.668
ltibia 20.3775
lfoot -9.23198 -26.5338
ltoes -9.11114
498
root -5.78201 18.2815 -2.12704 -165.075 43.2314 -172.935
lowerback -5.11401 7.65506 0.971215
upperback -2.29679 10.394 3.81125
thorax -0.0848866 5.32894 3.85594
lowerneck -19.4011 -0.159991 3.77445
upperneck 12.9066 -1.4408 1.44292
head 7.11673 -0.33462 -0.299065
rclavicle 1.04362e-014 -8.74653e-015
rhumerus -23.973 46.0041 -112.839
rradius 40.1352
rwrist -54.3101
rhand -27.1129 -3.28866
rfingers 7.12502
rthumb -0.529153 -33.2677
lclavicle 1.04362e-014 -8.74653e-015
lhumerus -36.1567 -48.8655 117.998
lradius 51.6253
lwrist 59.7756
lhand -16.8777 52.8939
lfingers 7.12502
lthumb -170.647 -97.3336
rfemur -1.48217 -2.16397 12.1604
rtibia 28.5385
rfoot 14.102 -16.1632
rtoes 4.46121
lfemur -19.5351 -8.55197 -12.8536
ltibia 20.3363
lfoot -10.1111 -25.7897
ltoes -11.3633
499
root -5.78281 18.2767 -2.11118 -165.08 43.9862 -173.015
lowerback -5.12685 7.61973 0.557169
upperback -2.36899 10.3717 3.87114
thorax -0.23482 5.32624 4.12694
lowerneck -19.2982 -0.139679 3.67373
upperneck 13.0758 -1.40546 1.568
head 7.15761 -0.307164 -0.237908
rclavicle 2.56432e-014 -1.74931e-014
rhumerus -25.0376 45.7963 -113.331
rradius 40.3676
rwrist -55.1252
rhand -27.2783 -3.77964
rfingers 7.12502
rthumb -0.68889 -33.7583
lclavicle 2.56432e-014 -1.74931e-014
lhumerus -36.9696 -48.949 118.888
lradius 51.4403
lwrist 59.9124
lhand -16.3247 53.2637
lfingers 7.12502
lthumb -170.113 -96.9885
rfemur -1.66137 -2.01488 11.9206
rtibia 28.5265
rfoot 13.491 -16.215
rtoes 6.74322
lfemur -19.5226 -8.39555 -12.995
ltibia 20.3734
lfoot -9.65611 -25.3208
ltoes -9.33739
500
root -5.78971 18.2638 -2.09079 -165.227 44.637 -173.205
lowerback -5.04498 7.58237 0.258877
upperback -2.385 10.3314 3.83483
thorax -0.33866 5.30731 4.23093
lowerneck -19.2908 -0.129126 3.64647
upperneck 13.2028 -1.4046 1.68373
head 7.19969 -0.293174 -0.195533
rclavicle 2.3382e-014 -4.92986e-014
rhumerus -25.8317 45.3704 -113.604
rradius 40.6615
rwrist -55.8207
rhand -27.3733 -4.27933
rfingers 7.12502
rthumb -0.780609 -34.2576
lclavicle 2.3382e-014 -4.92986e-014
lhumerus -37.7346 -49.226 119.677
lradius 51.3524
lwrist 60.44
lhand -16.5564 53.5161
lfingers 7.12502
lthumb -170.337 -96.7256
rfemur -1.80601 -1.95669 11.6469
rtibia 28.5719
rfoot 13.0474 -16.0585
rtoes 7.67668
lfemur -19.4784 -8.2765 -13.2229
ltibia 20.3355
lfoot -9.30895 -24.8987
ltoes -8.18932
501
root -5.80028 18.2566 -2.07059 -165.37 45.1965 -173.366
lowerback -4.98122 7.53098 0.101749
upperback -2.33186 10.2572 3.76135
thorax -0.326601 5.26535 4.23213
lowerneck -19.4313 -0.139474 3.60918
upperneck 13.3288 -1.44603 1.8568
head 7.26662 -0.292797 -0.137667
rclavicle -6.78104e-014 -5.56597e-015
rhumerus -26.475 45.0718 -113.779
rradius 40.9288
rwrist -56.7317
rhand -27.5988 -4.7068
rfingers 7.12502
rthumb -0.998396 -34.6842
lclavicle -6.78104e-014 -5.56597e-015
lhumerus -38.2009 -49.4203 120.141
lradius 51.2598
lwrist 60.7155
lhand -16.4777 53.8764
lfingers 7.12502
lthumb -170.261 -96.3688
rfemur -1.96518 -1.98142 11.4408
rtibia 28.6905
rfoot 12.4943 -15.9644
rtoes 8.32575
lfemur -19.3606 -8.1461 -13.4384
ltibia 20.231
lfoot -9.48983 -24.3515
ltoes -9.5074
502
root -5.8092 18.2518 -2.04968 -165.334 45.8232 -173.384
lowerback -4.96407 7.50174 -0.0174835
upperback -2.3023 10.2144 3.70559
thorax -0.312353 5.24071 4.23731
lowerneck -19.6269 -0.143891 3.58683
upperneck 13.4688 -1.48804 2.03724
head 7.34762 -0.290006 -0.0797741
rclavicle -1.39149e-015 -1.35174e-014
rhumerus -26.9368 44.5725 -113.881
rradius 41.0367
rwrist -57.4942
rhand -27.852 -5.16602
rfingers 7.12502
rthumb -1.24301 -35.1421
lclavicle -1.39149e-015 -1.35174e-014
lhumerus -38.5938 -49.5651 120.497
lradius 51.2017
lwrist 60.8017
lhand -16.4246 54.3218
lfingers 7.12502
lthumb -170.209 -95.9258
rfemur -2.22596 -1.88241 11.364
rtibia 28.8196
rfoot 11.6493 -16.2497
rtoes 10.4283
lfemur -19.3236 -8.12067 -13.4763
ltibia 20.1977
lfoot -9.41582 -23.7034
ltoes -9.61853
503
root -5.82375 18.2445 -2.03017 -165.279 46.2579 -173.323
lowerback -4.81732 7.44824 0.0566226
upperback -2.3275 10.1391 3.65376
thorax -0.391195 5.2004 4.11936
lowerneck -19.7021 -0.178061 3.57231
upperneck 13.5778 -1.5579 2.16847
head 7.39759 -0.306541 -0.0424264
rclavicle 8.35393e-014 9.46215e-014
rhumerus -27.4101 44.0548 -113.958
rradius 41.1808
rwrist -58.427
rhand -28.2776 -5.43246
rfingers 7.12502
rthumb -1.65399 -35.4058
lclavicle 8.35393e-014 9.46215e-014
lhumerus -39.0922 -49.6661 120.961
lradius 51.1429
lwrist 60.6671
lhand -16.1174 54.7638
lfingers 7.12502
lthumb -169.913 -95.498
rfemur -2.42416 -2.01256 11.3976
rtibia 28.9131
rfoot 10.9862 -16.4809
rtoes 11.9354
lfemur -19.3578 -8.29424 -13.4118
ltibia 20.256
lfoot -9.39919 -23.078
ltoes -9.81691
504
root -5.83921 18.2374 -2.00909 -165.367 46.6906 -173.443
lowerback -4.73797 7.39976 0.085208
upperback -2.28658 10.0617 3.54319
thorax -0.361612 5.15435 3.98249
lowerneck -19.8399 -0.241354 3.549
upperneck 13.7122 -1.66369 2.26318
head 7.466 -0.343444 -0.020163
rclavicle -2.90723e-014 1.66979e-014
rhumerus -27.8371 43.927 -114.006
rradius 41.4356
rwrist -59.7499
rhand -28.8894 -5.61487
rfingers 7.12502
rthumb -2.24486 -35.5828
lclavicle -2.90723e-014 1.66979e-014
lhumerus -39.4129 -49.7732 121.248
lradius 51.0633
lwrist 60.1579
lhand -14.8805 55.2548
lfingers 7.12502
lthumb -168.72 -95.0685
rfemur -2.58879 -2.28563 11.3063
rtibia 28.9965
rfoot 10.4177 -16.6436
rtoes 12.655
lfemur -19.4295 -8.26217 -13.5389
ltibia 20.3561
lfoot -9.70953 -22.6286
ltoes -10.9388
505
root -5.8427 18.2349 -1.97852 -165.408 47.5179 -173.558
lowerback -4.69673 7.3752 -0.320139
upperback -2.28525 10.0416 3.54098
thorax -0.450061 5.14788 4.1868
lowerneck -19.8664 -0.26308 3.48243
upperneck 13.8812 -1.69723 2.35796
head 7.52809 -0.348525 0.0177734
rclavicle 3.52843e-014 -3.65764e-014
rhumerus -28.4995 44.2122 -114.262
rradius 41.6504
rwrist -61.1138
rhand -29.4407 -5.95905
rfingers 7.12502
rthumb -2.77729 -35.9207
lclavicle 3.52843e-014 -3.65764e-014
lhumerus -39.5606 -49.5477 121.342
lradius 50.9488
lwrist 59.2753
lhand -13.4685 55.8738
lfingers 7.12502
lthumb -167.358 -94.5287
rfemur -2.85114 -2.13439 11.1953
rtibia 29.0915
rfoot 9.58397 -17.1083
rtoes 14.1536
lfemur -19.421 -7.82212 -13.7362
ltibia 20.4486
lfoot -10.4496 -22.1047
ltoes -13.2286
506
root -5.84589 18.232 -1.94797 -165.311 48.3199 -173.449
lowerback -4.56923 7.37794 -0.549256
upperback -2.33199 10.0579 3.56376
thorax -0.613278 5.16141 4.30737
lowerneck -19.8302 -0.344691 3.32974
upperneck 14.017 -1.80637 2.58982
head 7.57092 -0.380588 0.10618
rclavicle 1.56543e-015 -3.26007e-014
rhumerus -29.2185 44.1537 -114.441
rradius 42.174
rwrist -62.1419
rhand -29.9874 -6.88529
rfingers 7.12502
rthumb -3.30528 -36.8394
lclavicle 1.56543e-015 -3.26007e-014
lhumerus -39.7022 -49.2417 121.438
lradius 50.7518
lwrist 58.3094
lhand -12.7761 56.6475
lfingers 7.12502
lthumb -166.691 -93.7975
rfemur -3.09786 -1.98036 11.2709
rtibia 29.182
rfoot 8.66491 -17.6961
rtoes 16.1769
lfemur -19.3502 -7.49591 -13.7386
ltibia 20.5051
lfoot -10.7836 -21.4634
ltoes -14.6791
507
root -5.85327 18.2296 -1.92055 -165.237 49.0504 -173.392
lowerback -4.83411 7.4377 -0.525222
upperback -2.05481 10.107 3.4872
thorax -0.166201 5.16896 4.28369
lowerneck -20.2001 -0.483692 3.1298
upperneck 14.0302 -2.00955 2.89204
head 7.64321 -0.452187 0.213607
rclavicle -2.99668e-014 3.26007e-014
rhumerus -29.0337 44.0744 -113.976
rradius 42.5632
rwrist -63.2462
rhand -30.6005 -7.76054
rfingers 7.12502
rthumb -3.8974 -37.7046
lclavicle -2.99668e-014 3.26007e-014
lhumerus -39.2228 -49.3957 121.086
lradius 50.5928
lwrist 57.6312
lhand -12.1333 57.3823
lfingers 7.12502
lthumb -166.071 -93.1042
rfemur -3.35828 -2.02976 11.311
rtibia 29.2496
rfoot 7.83898 -18.2503
rtoes 18.1292
lfemur -19.3317 -7.35397 -13.737
ltibia 20.5704
lfoot -10.5121 -20.8204
ltoes -14.2326
